inDegrees=no
num_controls=7
num_derivatives=13
num_iterations=121
num_multipliers=7
num_parameters=0
num_slacks=7
num_states=26
objective=5.554101
objective_accelerations=0.803309
objective_balance=0.024676
objective_effort=0.247549
objective_height=4.402092
objective_ligament=0.076474
solver_duration=1440.448921
status=Solve_Succeeded
success=true
DataType=double
version=3
OpenSimVersion=4.4-2022-07-23-0e9fedc
endheader
time	/jointset/ground_pelvis/pelvis_tilt/value	/jointset/ground_pelvis/pelvis_tx/value	/jointset/ground_pelvis/pelvis_ty/value	/jointset/hip_l/hip_flexion_l/value	/jointset/hip_l/hip_adduction_l/value	/jointset/hip_l/hip_rotation_l/value	/jointset/back/lumbar_extension/value	/jointset/patellofemoral_l/patellar_flexion_l/value	/jointset/knee_l/knee_flexion_l/value	/jointset/knee_l/knee_adduction_l/value	/jointset/knee_l/knee_rotation_l/value	/jointset/ankle_l/ankle_angle_l/value	/jointset/subtalar_l/subtalar_angle_l/value	/jointset/ground_pelvis/pelvis_tilt/speed	/jointset/ground_pelvis/pelvis_tx/speed	/jointset/ground_pelvis/pelvis_ty/speed	/jointset/hip_l/hip_flexion_l/speed	/jointset/hip_l/hip_adduction_l/speed	/jointset/hip_l/hip_rotation_l/speed	/jointset/back/lumbar_extension/speed	/jointset/patellofemoral_l/patellar_flexion_l/speed	/jointset/knee_l/knee_flexion_l/speed	/jointset/knee_l/knee_adduction_l/speed	/jointset/knee_l/knee_rotation_l/speed	/jointset/ankle_l/ankle_angle_l/speed	/jointset/subtalar_l/subtalar_angle_l/speed	/forceset/tau_hip_flexion_l	/forceset/tau_hip_adduction_l	/forceset/tau_hip_rotation_l	/forceset/tau_knee_flexion_l	/forceset/tau_ankle_angle_l	/forceset/tau_subtalar_angle_l	/forceset/tau_lumbar_extension	lambda_cid13_p0	lambda_cid13_p1	lambda_cid13_p2	lambda_cid13_p3	lambda_cid13_p4	lambda_cid13_p5	lambda_cid14_p0	/jointset/ground_pelvis/pelvis_tilt/accel	/jointset/ground_pelvis/pelvis_tx/accel	/jointset/ground_pelvis/pelvis_ty/accel	/jointset/hip_l/hip_flexion_l/accel	/jointset/hip_l/hip_adduction_l/accel	/jointset/hip_l/hip_rotation_l/accel	/jointset/back/lumbar_extension/accel	/jointset/patellofemoral_l/patellar_flexion_l/accel	/jointset/knee_l/knee_flexion_l/accel	/jointset/knee_l/knee_adduction_l/accel	/jointset/knee_l/knee_rotation_l/accel	/jointset/ankle_l/ankle_angle_l/accel	/jointset/subtalar_l/subtalar_angle_l/accel	gamma_cid13_p0	gamma_cid13_p1	gamma_cid13_p2	gamma_cid13_p3	gamma_cid13_p4	gamma_cid13_p5	gamma_cid14_p0
1.5	-0.584612162562554	-0.058030502933094	0.7714293667886704	1.304642947324933	-0.3539417689786821	-0.08645566019444903	-0.3572160384247473	0.6398841782188834	0.6398841782186466	-0.06501762872573004	-0.1740985095474711	0.01836404659080447	0.07307374185253475	1.111302367490125	0.5220874974807975	0.5534963050410913	-3.046518018890549	-0.03087133054350768	-0.5613392906648332	0.5824244304679327	-1.727511037120957	-1.727511037120062	-0.2576275998614941	0.01204161449170729	0.07778923608243384	-0.002227118770256059	-0.2168316214851912	0.007769553966027291	0.009362844619751259	-0.07568044064123758	0.04467695734723619	0.01540497560695479	0.1756557803088313	-9.205165179302107	-6.697351722206604	2.635708150700608	-9.481950104933892	-430.667116745684	-64.90640247455096	-17.57446806601511	1.066255676964361	1.030045606010934	-0.6749975860990899	-2.111376625693412	0.3418042168884367	-0.267885147220791	2.16900256804279	-0.7625823587341868	-0.7625823587341888	-0.3132729213080624	0.3053752904024756	0.2223319557515559	0.417433924554732	8.317624339866647e-08	1.779395860958801e-06	-2.225871209973496e-07	3.359324157542192e-07	4.335571631367595e-07	-3.244277976252301e-07	3.653791991796115e-07
1.51	-0.5734464612066348	-0.05275861366908936	0.7769294496721753	1.274074398939547	-0.3542352935574786	-0.09208328714132502	-0.351285638894603	0.622572773574948	0.622572773574783	-0.06761240947138278	-0.1739654523991715	0.01915272143028141	0.07307030729952679	1.121638255848899	0.5322236665381738	0.5463956497029179	-3.066760007424976	-0.0278127165513108	-0.5641432812696714	0.6035695470636279	-1.734539083531947	-1.734539083531997	-0.2612683851732365	0.01458377391462885	0.07996706194172513	0.001568059470965894	-0.209301625003785	0.007415024622003327	0.009913723984036407	-0.07404814560543611	0.04156251481802663	0.01404675398996194	0.1700840516127685	-10.04019247840743	-6.173464515284868	2.794564325322644	-8.803553545708015	-426.0945289802245	-64.28584562236156	-18.23223876222812	0.987362718998215	0.9954519091245501	-0.7461580114222599	-1.915795628718312	0.2908521732771454	-0.2798478803490075	2.074376929884325	-0.6383894739580763	-0.638389474099274	-0.3801714863253925	0.230440381831325	0.2187619561698899	0.3645991430207541	1.466781595842953e-07	1.726944654601116e-06	-8.049427709427559e-07	2.880240981382757e-07	5.922144320613873e-07	-3.326641745663604e-07	4.374363380203065e-07
1.52	-0.5621833795064202	-0.04738735284380406	0.7823548143015479	1.243316393536506	-0.3544976395598079	-0.09773759236697013	-0.3451463660535975	0.6051979937286037	0.605197993728444	-0.0702417361002073	-0.1738066128337887	0.01996382533937491	0.07310563240275199	1.130778436354263	0.541961809736926	0.5385526542148344	-3.084409422415368	-0.02463561524333499	-0.5666749464038781	0.6241990926413356	-1.740186077610017	-1.740186077611011	-0.264536776493799	0.01719809788131539	0.08227505000708556	0.005524812476752227	-0.2017716285226497	0.007060495277547196	0.01046460334780379	-0.07241585056979555	0.03844807228863543	0.01268853237247923	0.1645123229165732	-10.87714619215954	-5.650299629744604	2.954746741310684	-8.123287022421374	-421.5517810737809	-63.7391433867587	-18.87438061717013	0.8271141062814097	0.9504404342868513	-0.8234656160809442	-1.59286191688678	0.3655016800440068	-0.2134200530950586	2.065888364445113	-0.4863718921499744	-0.48637189214996	-0.238794123072396	0.3198081991549108	0.2483643969663713	0.4497488774676253	1.810857872632685e-07	1.707822251970565e-06	-1.158656586059706e-06	2.633727091081718e-07	6.974655720438288e-07	-3.105419594460331e-07	4.800763955725166e-07
1.53	-0.5508346780992289	-0.0419209131460134	0.7876980896292616	1.212394799708777	-0.3547278719539395	-0.1034152970818103	-0.3388037604176745	0.587773635836031	0.587773635836034	-0.07290262787318644	-0.1736209611358184	0.02079840745763234	0.07318099584643316	1.138766151115932	0.5512358779335448	0.5299819360829034	-3.099455038981785	-0.02140578501811575	-0.5687836500763975	0.6442097993588924	-1.744446981768116	-1.744446981768472	-0.2676180149371845	0.01996462488091803	0.08464075610111076	0.009552830892496778	-0.1945302340876018	0.00668604606139443	0.01101651958777522	-0.07023616948557665	0.03437431325932937	0.01123578783654979	0.1590403830982473	-12.04025084479232	-5.058278498999265	3.137420320229193	-7.066347841690222	-417.0964727013787	-63.04125133757194	-19.49745611794913	0.7553013935192331	0.9024049243216605	-0.8917918097875513	-1.392196559785847	0.302336047668716	-0.1968335016091597	1.951826546816337	-0.3602713191505991	-0.3602713190549235	-0.3389827059873806	0.2596023373691378	0.2306316046303493	0.3799549094912968	1.845807334039206e-07	1.724111703300092e-06	-1.269438451671424e-06	2.634318067005221e-07	7.45972700025198e-07	-2.561637402604075e-07	4.914608042557118e-07
